# xmcd
#
# Track frame offsets:
#	150
#	9525
#	19868
#	36181
#	44911
#	56544
#	66362
#	76555
#	91113
#	104546
#	120521
#	130196
#
# Disc length: 1884 seconds
#
# Revision: 1
# Processed by: cddbd v1.5.2PL0 Copyright (c) Steve Scherf et al.
# Submitted via: audiograbber 1.83.01
#
DISCID=97075a0c
DTITLE=Faron Young - Story Songs For Country Folks
DYEAR=1964
DGENRE=Country
TTITLE0=Rhinestones
TTITLE1=Saw Mill
TTITLE2=Family Bible
TTITLE3=Company's Comin'
TTITLE4=Pickin' Time
TTITLE5=Busted
TTITLE6=Sharecropper Family
TTITLE7=Old Courthouse
TTITLE8=Po Folks
TTITLE9=Mama Sang A Song
TTITLE10=Black Land Farmer
TTITLE11=Ya'll Come
EXTD=This CD was created from one of my LP's
EXTT0=
EXTT1=
EXTT2=
EXTT3=
EXTT4=
EXTT5=
EXTT6=
EXTT7=
EXTT8=
EXTT9=
EXTT10=
EXTT11=
PLAYORDER=
